<svg width="17" height="20" viewBox="0 0 17 20" fill="none" xmlns="http://www.w3.org/2000/svg">
<path d="M8.5 10C9.78819 10 11.0236 9.47322 11.9345 8.53553C12.8454 7.59785 13.3571 6.32608 13.3571 5C13.3571 3.67392 12.8454 2.40215 11.9345 1.46447C11.0236 0.526784 9.78819 0 8.5 0C7.21181 0 5.97637 0.526784 5.06548 1.46447C4.15459 2.40215 3.64286 3.67392 3.64286 5C3.64286 6.32608 4.15459 7.59785 5.06548 8.53553C5.97637 9.47322 7.21181 10 8.5 10ZM6.76585 11.875C3.02813 11.875 0 14.9922 0 18.8398C0 19.4805 0.504688 20 1.12701 20H15.873C16.4953 20 17 19.4805 17 18.8398C17 14.9922 13.9719 11.875 10.2342 11.875H6.76585Z" fill="black"/>
</svg>
